<svg xmlns="http://www.w3.org/2000/svg" width="4096" height="2304"
     viewBox="0 0 4096 2304">
    <g id="Overlay">
        <g id="Information_Box">
            <rect x="100" y="1864" width="1800" height="340" style="opacity:0.5"/>
            <text transform="translate(122 1986.2852)" style="font-size:120px;fill:#fff;font-family:ArialMT, Arial">
                <tspan id="name">???</tspan>
            </text>
            <text transform="translate(122 2063.9082)" style="font-size:50px;fill:#fff;font-family:ArialMT, Arial">
                as of Tropical Cyclone Bulletin #<tspan id="bulletinCount">??</tspan> (<tspan id="bulletinIssued">???</tspan>)
            </text>
            <text transform="translate(122 2131.4541)"
                  style="font-size:32px;fill:#fff;font-family:Arial-ItalicMT, Arial;font-style:italic">
                <tspan x="0" y="0">
                    Data from the Philippine Atmospheric, Geophysical and Astronomical Services Administration.
                </tspan>
                <tspan x="0" y="38">
                    This graphic may be out of date, refer to official sources for the most up-to-date information.
                </tspan>
            </text>
        </g>
        <g id="TCWS">
            <g id="TCWS1">
                <rect x="3773.1527" y="258.0219" width="187.68" height="187.68" rx="21.36"
                      transform="translate(883.812 2837.4347) rotate(-45)" style="fill:#fff"/>
                <path d="M3866.9733,479.8619a25.36,25.36,0,0,1-18.04-7.48l-102.48-102.48a25.52,25.52,0,0,1,0-36l102.48-102.56a25.52,25.52,0,0,1,36,0l102.56,102.48a25.52,25.52,0,0,1,0,36l-102.48,102.56A25.36,25.36,0,0,1,3866.9733,479.8619Zm0-247.72a17.16,17.16,0,0,0-12,5.04l-102.68,102.68a17.2,17.2,0,0,0,0,24.32l102.68,102.36a17.2,17.2,0,0,0,24.32,0l102.36-102.68a17.2,17.2,0,0,0,0-24.32l-102.68-102.36A17.16,17.16,0,0,0,3866.9733,232.1419Z"
                      style="fill:#41b8df"/>
                <rect x="3790.7526" y="275.6219" width="152.48" height="152.48" transform="translate(883.812 2837.4347) rotate(-45)"
                      style="fill:#41b8df"/>
                <path d="M3852.1333,403.1419v-79.68h-28.64v-17.08c17.44-.2,29.56-9.92,32-22.4h21.84v119.16Z" style="fill:#fff"/>
            </g>
            <g id="TCWS2">
                <rect x="3773.149" y="549.0658" width="187.68" height="187.68" rx="21.36"
                      transform="translate(678.0118 2922.6769) rotate(-45)" style="fill:#fff"/>
                <path d="M3866.97,770.9058a25.2,25.2,0,0,1-18.04-7.48l-102.48-102.48a25.52,25.52,0,0,1,0-36l102.48-102.56a25.48,25.48,0,0,1,36,0l102.6,102.48a25.6,25.6,0,0,1,0,36l-102.52,102.56A25.2,25.2,0,0,1,3866.97,770.9058Zm0-247.68a17,17,0,0,0-12,5l-102.68,102.68a17.2,17.2,0,0,0,0,24.32l102.68,102.36a17.28,17.28,0,0,0,24.32,0l102.36-102.68a17.2,17.2,0,0,0,0-24.32l-102.68-102.36A17.04,17.04,0,0,0,3866.97,523.2258Z"
                      style="fill:#f4c20d"/>
                <rect x="3790.749" y="566.6658" width="152.48" height="152.48" transform="translate(678.0118 2922.6769) rotate(-45)"
                      style="fill:#f4c20d"/>
                <path d="M3825.73,624.7458a43.9916,43.9916,0,0,1-.88-8c0-20.44,15.4-38.92,42.48-38.92,26,0,41.96,17.2,41.96,37.48,0,15.04-8.24,27.24-22.6,36l-22.4,13.6a23.999,23.999,0,0,0-10.04,10.6h55.76v21.32h-86.08c.2-20.44,6.64-37.12,27.44-49.68l19.2-11.44c9.84-5.92,13.8-12,13.8-20s-5.92-16-17.56-16c-12.4,0-18.48,8.4-18.48,19.36a26.0759,26.0759,0,0,0,.88,6.44Z"
                      style="fill:#fff"/>
            </g>
            <g id="TCWS3">
                <rect x="3773.1527" y="840.0969" width="187.68" height="187.68" rx="21.36"
                      transform="translate(472.2228 3007.9205) rotate(-45)" style="fill:#fff"/>
                <path d="M3866.9733,1061.9369a25.32,25.32,0,0,1-18.04-7.44l-102.52-102.52a25.6,25.6,0,0,1,0-36l102.52-102.6a25.6,25.6,0,0,1,36,0l102.6,102.52a25.6,25.6,0,0,1,0,36l-102.52,102.6A25.32,25.32,0,0,1,3866.9733,1061.9369Zm0-247.68a17.04,17.04,0,0,0-12,5l-102.68,102.68a17.2,17.2,0,0,0,0,24.32l102.68,102.36a17.28,17.28,0,0,0,24.32,0l102.36-102.68a17.2,17.2,0,0,0,0-24.32l-102.68-102.36A17.04,17.04,0,0,0,3866.9733,814.2569Z"
                      style="fill:#e6793b"/>
                <rect x="3790.7526" y="857.6969" width="152.48" height="152.48"
                      transform="translate(472.2228 3007.9205) rotate(-45)" style="fill:#e6793b"/>
                <path d="M3847.4533,923.3769l30.48-26.16h-50.96v-21.36h82.32v20l-30.12,25.08a34.68,34.68,0,0,1,33.72,35.52c0,20-16.48,38.52-44.64,38.52-27.08,0-43.56-17.56-45-37.08l24-4.68a20.48,20.48,0,0,0,20.5087,20.4513q.3258,0,.6513-.0113c12.36,0,19.72-8,19.72-17.56,0-10.96-8-17.2-19-17.2a29.4831,29.4831,0,0,0-10.6,1.76Z"
                      style="fill:#fff"/>
            </g>
            <g id="TCWS4">
                <rect x="3773.1609" y="1131.1291" width="187.72" height="187.72" rx="21.36"
                      transform="translate(266.4261 3093.1877) rotate(-45)" style="fill:#fff"/>
                <path d="M3866.9733,1352.9891a25.48,25.48,0,0,1-18.04-7.44l-102.52-102.52a25.6,25.6,0,0,1,0-36l102.52-102.6a25.52,25.52,0,0,1,36,0l102.6,102.52a25.6,25.6,0,0,1,0,36l-102.52,102.6A25.48,25.48,0,0,1,3866.9733,1352.9891Zm0-247.72a17.08,17.08,0,0,0-12,5.04l-102.68,102.68a17.2,17.2,0,0,0,0,24.32l102.68,102.36a17.2,17.2,0,0,0,24.32,0l102.36-102.68a17.2,17.2,0,0,0,0-24.32l-102.68-102.36A17.08,17.08,0,0,0,3866.9733,1105.2691Z"
                      style="fill:#b22a41"/>
                <rect x="3790.7609" y="1148.7291" width="152.52" height="152.52"
                      transform="translate(266.4261 3093.1877) rotate(-45)" style="fill:#b22a41"/>
                <path d="M3808.1733,1228.4691l50.12-67.24h31.24v72h19.64v21.68h-19.64v25.52h-24.96v-25.52h-56.4Zm56.4-40.76-34,45.52h34Z"
                      style="fill:#fff"/>
            </g>
            <g id="TCWS5">
                <rect x="3773.1609" y="1422.1648" width="187.68" height="187.68" rx="21.36"
                      transform="translate(60.6411 3178.4101) rotate(-45)" style="fill:#fff"/>
                <path d="M3866.9816,1644.0048a25.36,25.36,0,0,1-18.04-7.48l-102.48-102.48a25.48,25.48,0,0,1,0-36l102.48-102.56a25.52,25.52,0,0,1,36,0l102.56,102.48a25.52,25.52,0,0,1,0,36l-102.48,102.56A25.36,25.36,0,0,1,3866.9816,1644.0048Zm0-247.72a17.16,17.16,0,0,0-12,5.04l-102.68,102.68a17.28,17.28,0,0,0,0,24.32l102.68,102.36a17.2,17.2,0,0,0,24.32,0l102.36-102.68a17.28,17.28,0,0,0,0-24.32l-102.68-102.36A17.16,17.16,0,0,0,3866.9816,1396.2848Z"
                      style="fill:#6d4897"/>
                <rect x="3790.7609" y="1439.7648" width="152.48" height="152.48"
                      transform="translate(60.6411 3178.4101) rotate(-45)" style="fill:#6d4897"/>
                <path d="M3845.1416,1535.3648a20.8,20.8,0,0,0,21.5677,20.0028l.0723-.0028a19.32,19.32,0,0,0,20.5577-17.9974q.0451-.68.0422-1.3626c0-13.6-10.12-20-21.12-20a24.32,24.32,0,0,0-18.36,8c-2.4-.92-20.6-7.16-23.16-8l14.24-61.08h67.2v21.88h-50.04l-5.88,26.24a32.88,32.88,0,0,1,21.48-7.32c24,0,40.8,14.32,40.8,40,0,22.2-17.08,41.52-45.76,41.52-25.88,0-44-17.64-45.36-36.4Z"
                      style="fill:#fff"/>
            </g>
            <text transform="translate(3737.4438 175.8711)"
                  style="font-size:88px;fill:#fff;font-family:Arial-BoldMT, Arial;font-weight:700">TCWS
            </text>
        </g>
    </g>
</svg>
